<svg xmlns="http://www.w3.org/2000/svg" xmlns:xlink="http://www.w3.org/1999/xlink" viewBox="0 0 325.47 72"><defs><style>.cls-1{fill:none;}.cls-2{clip-path:url(#clip-path);}.cls-3{fill:#9185c1;}.cls-4{fill:#fff;}</style><clipPath id="clip-path"><rect class="cls-1" width="325.47" height="72"/></clipPath></defs><g id="Layer_2" data-name="Layer 2"><g id="Layer_1-2" data-name="Layer 1"><g id="Banner_Icon" data-name="Banner Icon"><g class="cls-2"><g class="cls-2"><path class="cls-3" d="M125.62,0a36,36,0,1,0,36,36,36,36,0,0,0-36-36"/><path d="M21.79,30.73,33,30.67q7.58,0,7.58,7.17V56.69a63.54,63.54,0,0,1-19.41,2.94,22.8,22.8,0,0,1-9.15-1.73A17.78,17.78,0,0,1,5.42,53a21.71,21.71,0,0,1-4.07-7.91A38.67,38.67,0,0,1,0,34.4,30.88,30.88,0,0,1,1.9,23.05,23.14,23.14,0,0,1,7,15a20.72,20.72,0,0,1,7.33-4.83A23.77,23.77,0,0,1,23,8.52a32.17,32.17,0,0,1,17.48,5.17A7.15,7.15,0,0,1,39.94,16a14.52,14.52,0,0,1-1.15,2.3,11,11,0,0,1-1.56,2,14.11,14.11,0,0,1-1.83,1.54,21.81,21.81,0,0,0-12-3.88Q11.68,18,11.69,34.32t12,16.27q1.63,0,3.18-.15a30.45,30.45,0,0,0,3-.42V45.21c0-1.09,0-2.05.05-2.85s.06-1.51.1-2.09H26.44c-2.06,0-3.48-.39-4.27-1.18A5.09,5.09,0,0,1,21,35.4a15.6,15.6,0,0,1,.79-4.67"/><path d="M84.84,24.71a13.61,13.61,0,0,1-.73,4.5A14.45,14.45,0,0,1,82.22,33a13.42,13.42,0,0,1-2.79,2.94,12.94,12.94,0,0,1-3.34,1.9q3.73,1.35,5.52,6.58l2.15,6.1a10.47,10.47,0,0,0,3.58,5.3,8,8,0,0,1-3.23,2.41,11.38,11.38,0,0,1-4.7,1,5.41,5.41,0,0,1-4-1.46,13.71,13.71,0,0,1-2.64-5.14l-2.58-7.52A8,8,0,0,0,68,41.77a5.93,5.93,0,0,0-4-1.14H61.11V58.55a31.5,31.5,0,0,1-5.73.43,30.38,30.38,0,0,1-5.66-.43V10l.52-.5,10.48-.21q4.26-.08,6.71-.08a24.69,24.69,0,0,1,7.16,1,14.59,14.59,0,0,1,5.48,2.9,12.77,12.77,0,0,1,3.52,4.87,17.1,17.1,0,0,1,1.25,6.79M61.11,17.77V31.82c2.15,0,4,0,5.52-.11a8.66,8.66,0,0,0,3.69-.85,5.09,5.09,0,0,0,2.13-2.13,8.7,8.7,0,0,0,.71-3.93q0-7-6.73-7h-3c-.88,0-1.66,0-2.34-.07"/><path d="M197.28,55.4a14.84,14.84,0,0,1-6,2.73A37,37,0,0,1,183,59q-2.22,0-6.42-.08c-2.79,0-6.29-.12-10.48-.21l-.52-.5V10l.52-.5q4.14-.14,8.62-.21t9.42-.08a23.78,23.78,0,0,1,10.19,1.94,16.71,16.71,0,0,1,6.52,5.31,21.09,21.09,0,0,1,3.44,7.92,45.8,45.8,0,0,1,1,9.77,41.63,41.63,0,0,1-1.65,12.39,18,18,0,0,1-6.37,8.9M184.09,50q9.45,0,9.46-15.91t-9.46-16H180c-1.17,0-2.19,0-3.05-.08v32c.86,0,1.88-.07,3.05-.07Z"/><path d="M224.65,44.07l-.08,5.16v.06c2.19-.09,4-.14,5.31-.14h16.63a27.63,27.63,0,0,1-.23,4.08q-.85,5.52-7.29,5.52H219.9A6.46,6.46,0,0,1,215.07,57a6.65,6.65,0,0,1-1.75-4.87v-42l.5-.52h30.9a23.65,23.65,0,0,1,.41,4.52,14.27,14.27,0,0,1-1,5.08H224.57l.08,5.17v5c1.24-.05,2.86-.09,4.86-.09h11a15.51,15.51,0,0,1,.64,4.61,16.85,16.85,0,0,1-.64,4.73H224.65Z"/><path d="M272.59,48.88H285a27.52,27.52,0,0,1-.37,4.89,5.62,5.62,0,0,1-2.29,3.53,8.22,8.22,0,0,1-5.09,1.45H261.05a6.18,6.18,0,0,1-6.67-6.66V9.59l.5-.5h4.23q6.72,0,6.73,7.31V49.15q3.17-.27,6.75-.27"/><path d="M309.91,21.71l4.81-12.12a22.41,22.41,0,0,1,4.79-.42A15.89,15.89,0,0,1,325,10l.5.59L311.56,43.5v15a37.53,37.53,0,0,1-11.46,0V43.21L286.26,11A12.52,12.52,0,0,1,292.58,9a7,7,0,0,1,4.33,1.05,8.3,8.3,0,0,1,2.33,3.54l3.44,8.52a76.51,76.51,0,0,1,3.23,10.25h.42a89.48,89.48,0,0,1,3.58-10.67"/><path class="cls-4" d="M116.62,47.71c-1.25.24-2.17.4-2.76.46l-1.07,10.68a21.6,21.6,0,0,1-4.61,1.3,15.75,15.75,0,0,1-5.57.25l-.45-.47,6.43-49.61a38.1,38.1,0,0,1,6.24-1.63,35.38,35.38,0,0,1,6.65-.77l23.92,43.9a11.6,11.6,0,0,1-5.27,2.4q-3.62.69-5.33-.28t-3.36-4.33l-2.21-4.36c-.63.15-1.53.35-2.7.58ZM114.77,39l2.74-.58,5.1-1,1.21-.19c.61-.09,1-.16,1.3-.22l-2-4.08q-2.77-5.52-6.54-13.61l-.42.09q0,3.09-.8,13.93Z"/><path class="cls-4" d="M142.51,23,142,20.27l-.64-3.38a13,13,0,0,1,2.61-.76,14.17,14.17,0,0,1,2.72-.27l.65,3.38.48,2.81,2.74-.56,3.17-.61a11.83,11.83,0,0,1,.79,2.56,9.43,9.43,0,0,1,.17,2.5l-3.17.61-2.76.48.58,2.75.64,3.43a12.59,12.59,0,0,1-2.63.75,14,14,0,0,1-2.71.27L144,30.8l-.5-2.77-2.74.58-3.19.61a10.12,10.12,0,0,1-.75-2.47,11,11,0,0,1-.21-2.6l3.19-.61Z"/></g></g></g></g></g></svg>