<?xml version="1.0" standalone="no"?>
<!DOCTYPE svg PUBLIC "-//W3C//DTD SVG 20010904//EN"
 "http://www.w3.org/TR/2001/REC-SVG-20010904/DTD/svg10.dtd">
<svg version="1.0" xmlns="http://www.w3.org/2000/svg"
 width="1000.000000pt" height="1000.000000pt" viewBox="0 0 1000.000000 1000.000000"
 preserveAspectRatio="xMidYMid meet">
<metadata>
Created by potrace 1.14, written by Peter Selinger 2001-2017
</metadata>
<g transform="translate(0.000000,1000.000000) scale(0.100000,-0.100000)"
fill="#000000" stroke="none">
<path d="M4778 9985 c-2 -1 -56 -6 -120 -9 -64 -4 -127 -9 -140 -11 -13 -2
-54 -6 -93 -10 -38 -4 -77 -8 -85 -10 -8 -2 -37 -6 -65 -9 -68 -9 -96 -14
-190 -32 -44 -9 -93 -18 -110 -20 -16 -3 -111 -26 -210 -51 -498 -126 -971
-328 -1420 -607 -44 -28 -81 -54 -83 -58 -2 -4 -10 -8 -18 -8 -8 0 -14 -4 -14
-10 0 -5 -4 -10 -10 -10 -5 0 -58 -35 -117 -77 -419 -300 -797 -669 -1099
-1073 -81 -109 -224 -317 -224 -327 0 -3 -6 -14 -14 -22 -43 -49 -269 -472
-331 -621 -15 -36 -35 -83 -45 -105 -50 -111 -159 -421 -185 -525 -2 -8 -17
-64 -34 -125 -25 -92 -45 -177 -67 -290 -18 -94 -26 -135 -30 -165 -2 -19 -6
-46 -9 -60 -3 -14 -7 -45 -10 -70 -3 -25 -8 -62 -10 -82 -3 -21 -7 -55 -10
-75 -5 -43 -15 -175 -21 -273 -5 -79 -5 -471 0 -520 2 -19 7 -87 11 -150 4
-63 8 -117 10 -120 3 -4 13 -90 20 -160 3 -37 12 -88 40 -235 9 -49 19 -101
21 -115 15 -79 101 -399 141 -517 110 -334 280 -711 434 -963 15 -25 42 -70
60 -100 30 -53 217 -330 228 -340 3 -3 35 -43 70 -90 227 -298 546 -620 856
-864 61 -47 115 -90 120 -94 30 -24 223 -156 305 -208 494 -318 1138 -574
1705 -679 50 -10 99 -19 110 -21 34 -7 219 -33 276 -39 30 -3 70 -7 89 -10
188 -26 818 -26 990 0 14 2 54 7 90 10 36 4 72 9 81 10 9 2 40 6 70 10 30 4
99 15 154 26 55 11 116 22 135 25 130 21 576 149 700 201 8 3 17 7 20 8 25 6
215 84 320 132 387 176 820 447 1125 705 172 145 404 369 520 502 33 37 65 73
70 80 6 6 33 38 60 71 28 33 52 62 55 65 19 17 199 266 271 375 237 357 442
780 573 1180 41 127 81 260 91 308 2 10 7 27 10 37 8 24 8 26 49 225 19 94 37
193 41 220 3 28 8 59 10 70 5 22 12 77 20 170 3 33 8 69 10 80 23 116 23 782
1 901 -2 11 -7 53 -10 94 -8 83 -12 114 -27 212 -6 37 -12 78 -14 90 -6 47
-17 105 -37 193 -10 50 -21 99 -24 110 -7 34 -15 70 -18 80 -2 6 -6 24 -10 40
-16 62 -49 174 -89 295 -23 69 -42 130 -43 135 -6 36 -141 350 -214 500 -180
366 -374 669 -629 980 -188 230 -330 374 -636 647 -51 45 -220 176 -321 248
-408 291 -834 508 -1311 669 -130 44 -360 111 -403 117 -8 1 -46 10 -85 19
-78 19 -87 21 -165 35 -30 6 -66 12 -80 15 -28 6 -130 21 -205 30 -27 4 -61 8
-75 11 -14 2 -63 6 -110 10 -47 3 -96 8 -110 10 -26 5 -576 14 -582 9z"/>
</g>
</svg>
